# File created by Blade
# Date/Time:  Mon Sep 29 18:17:19 2014
#---------------------------------------------------------
:version 1.10
:name HOM
:units
  mass 1.0
  length 1.000000
  angle deg
:documentation
     Acclaim Skeleton File
:root
   axis xyz
   order TX TY TZ RX RY RZ
   position 0.000000 0.000000 0.000000
   orientation 0 0 0
:bonedata
   begin
      id 1
      name Spine_dum
      direction 0.000000 1.000000 0.000000
      length 7.508948
      axis 0.0 0.0 0.0 xyz
   end
   begin
      id 2
      name LeftUpLeg_dum
      direction 1.000000 0.000000 0.000000
      length 3.000560
      axis 0.0 0.0 0.0 xyz
   end
   begin
      id 3
      name RightUpLeg_dum
      direction -1.000000 0.000000 0.000000
      length 3.000560
      axis 0.0 0.0 0.0 xyz
   end
   begin
      id 4
      name Spine
      direction 0.000000 1.000000 0.000000
      length 0.000000
      axis 0.0 0.0 0.0 xyz
      dof rx ry rz
   end
   begin
      id 5
      name Spine_dum1
      direction 0.000000 1.000000 0.000000
      length 13.861154
      axis 0.0 0.0 0.0 xyz
   end
   begin
      id 6
      name Spine_dum2
      direction 0.000000 1.000000 0.000000
      length 8.204781
      axis 0.0 0.0 0.0 xyz
   end
   begin
      id 7
      name Spine_dum3
      direction 0.000000 1.000000 0.000000
      length 8.204781
      axis 0.0 0.0 0.0 xyz
   end
   begin
      id 8
      name Head
      direction 0.000000 1.000000 0.000000
      length 4.527550
      axis 0.0 0.0 0.0 xyz
      dof rx ry rz
   end
   begin
      id 9
      name LeftShoulder
      direction 1.000000 0.000000 0.000000
      length 6.635956
      axis 0.0 0.0 -90.0 xyz
      dof rx ry rz
   end
   begin
      id 10
      name LeftArm
      direction 1.000000 0.000000 0.000000
      length 10.274218
      axis 0.0 0.0 -90.0 xyz
      dof rx ry rz
   end
   begin
      id 11
      name LeftForeArm
      direction 1.000000 0.000000 0.000000
      length 8.522147
      axis 0.0 0.0 -90.0 xyz
      dof ry rz rx
   end
   begin
      id 12
      name LeftHand
      direction 0.000000 0.000000 0.000000
      length 0.000000
      axis 0.0 0.0 -90.0 xyz
      dof rx ry rz
   end
   begin
      id 13
      name LeftHand_dum1
      direction 0.000000 0.000000 0.000000
      length 0.000000
      axis 0.0 0.0 -90.0 xyz
   end
   begin
      id 14
      name LeftHand_dum2
      direction 1.000000 0.000000 0.000000
      length 3.937000
      axis 0.0 0.0 -90.0 xyz
   end
   begin
      id 15
      name LeftHandThumb1
      direction 0.000000 0.000000 1.000000
      length 3.937000
      axis 0.0 0.0 -90.0 xyz
      dof rx rz ry
   end
   begin
      id 16
      name RightShoulder
      direction -1.000000 0.000000 0.000000
      length 6.635956
      axis 0.0 0.0 90.0 xyz
      dof rx ry rz
   end
   begin
      id 17
      name RightArm
      direction -1.000000 0.000000 0.000000
      length 10.274218
      axis 0.0 0.0 90.0 xyz
      dof rx ry rz
   end
   begin
      id 18
      name RightForeArm
      direction -1.000000 0.000000 0.000000
      length 8.522147
      axis 0.0 0.0 90.0 xyz
      dof ry rz rx
   end
   begin
      id 19
      name RightHand
      direction 0.000000 0.000000 0.000000
      length 0.000000
      axis 0.0 0.0 90.0 xyz
      dof rx ry rz
   end
   begin
      id 20
      name RightHand_dum1
      direction 0.000000 0.000000 0.000000
      length 0.000000
      axis 0.0 0.0 90.0 xyz
   end
   begin
      id 21
      name RightHand_dum2
      direction -1.000000 0.000000 0.000000
      length 3.937000
      axis 0.0 0.0 90.0 xyz
   end
   begin
      id 22
      name RightHandThumb1
      direction 0.000000 0.000000 1.000000
      length 3.937000
      axis 0.0 0.0 90.0 xyz
      dof rx rz ry
   end
   begin
      id 23
      name LeftUpLeg
      direction 0.000000 -1.000000 0.000000
      length 16.490845
      axis 0.0 0.0 0.0 xyz
      dof rx ry rz
   end
   begin
      id 24
      name LeftLeg
      direction 0.000000 -1.000000 0.000000
      length 14.556576
      axis 0.0 0.0 0.0 xyz
      dof rx ry rz
   end
   begin
      id 25
      name LeftFoot
      direction 0.000000 -0.258819 0.965926
      length 4.831116
      axis 15.0 0.0 0.0 xyz
      dof rx ry rz
   end
   begin
      id 26
      name LeftToeBase
      direction 0.000000 0.000000 1.000000
      length 2.952750
      axis 0.0 0.0 0.0 xyz
      dof rx ry rz
   end
   begin
      id 27
      name RightUpLeg
      direction 0.000000 -1.000000 0.000000
      length 16.490845
      axis 0.0 0.0 0.0 xyz
      dof rx ry rz
   end
   begin
      id 28
      name RightLeg
      direction 0.000000 -1.000000 0.000000
      length 14.556576
      axis 0.0 0.0 0.0 xyz
      dof rx ry rz
   end
   begin
      id 29
      name RightFoot
      direction 0.000000 -0.258819 0.965926
      length 4.831116
      axis 15.0 0.0 0.0 xyz
      dof rx ry rz
   end
   begin
      id 30
      name RightToeBase
      direction 0.000000 0.000000 1.000000
      length 2.952750
      axis 0.0 0.0 0.0 xyz
      dof rx ry rz
   end
:hierarchy
   begin
      root Spine_dum LeftUpLeg_dum RightUpLeg_dum
      Spine_dum Spine
      LeftUpLeg_dum LeftUpLeg
      RightUpLeg_dum RightUpLeg
      Spine Spine_dum1 Spine_dum2 Spine_dum3
      Spine_dum1 Head
      Spine_dum2 LeftShoulder
      Spine_dum3 RightShoulder
      LeftShoulder LeftArm
      LeftArm LeftForeArm
      LeftForeArm LeftHand
      LeftHand LeftHand_dum1 LeftHand_dum2
      LeftHand_dum1 LeftHandThumb1
      RightShoulder RightArm
      RightArm RightForeArm
      RightForeArm RightHand
      RightHand RightHand_dum1 RightHand_dum2
      RightHand_dum1 RightHandThumb1
      LeftUpLeg LeftLeg
      LeftLeg LeftFoot
      LeftFoot LeftToeBase
      RightUpLeg RightLeg
      RightLeg RightFoot
      RightFoot RightToeBase
   end

# File created by Blade
# Date/Time:  Mon Sep 29 17:58:21 2014
# Frame Rate: 120.000 fps
#------------------------------------------------------
:FULLY-SPECIFIED
:DEGREES
318
root 0.050663 13.495441 -8.332325 40.641767 2.682110 -2.759729
Spine 45.304364 5.040381 4.924360
Head -75.264873 2.445840 6.703863
LeftShoulder 15.939798 -10.281626 19.493728
LeftArm 56.365102 10.846241 -20.083048
LeftForeArm 51.035882 0.000000 62.329015
LeftHand -37.307065 -0.000000 40.439303
LeftHandThumb1 -26.253704 0.000000 33.147579
RightShoulder 7.729106 37.021617 -17.304553
RightArm 38.415382 -36.671765 36.522012
RightForeArm -47.495786 -0.000000 63.480853
RightHand -5.943378 -0.000000 -29.838770
RightHandThumb1 -24.326973 -0.000000 -32.862282
LeftUpLeg -133.713166 42.666064 -14.134926
LeftLeg 126.411864 -0.000000 -0.000000
LeftFoot -32.787386 -14.514709 -19.516844
LeftToeBase 8.395271 -0.000000 -0.000000
RightUpLeg -131.852375 -33.400376 16.429325
RightLeg 126.304224 -0.000000 -0.000000
RightFoot -33.522846 0.156498 16.419116
RightToeBase 3.268352 -0.000000 -0.000000
319
root 0.057205 13.456131 -8.326223 40.460514 2.648934 -2.739008
Spine 45.423277 5.138318 4.813857
Head -75.291777 2.458719 6.904163
LeftShoulder 15.916959 -10.302281 19.607150
LeftArm 56.293357 10.999830 -19.718230
LeftForeArm 51.384306 -0.000000 62.560431
LeftHand -37.536050 0.000000 40.360102
LeftHandThumb1 -26.253704 0.000000 33.147579
RightShoulder 7.752086 37.065298 -17.293103
RightArm 38.589503 -37.052021 35.928759
RightForeArm -47.580827 0.000000 63.602471
RightHand -6.097510 -0.000000 -29.872014
RightHandThumb1 -24.326973 -0.000000 -32.862282
LeftUpLeg -133.582924 42.764610 -14.008032
LeftLeg 126.571208 -0.000000 -0.000000
LeftFoot -32.784347 -14.579302 -19.592360
LeftToeBase 8.348247 -0.000000 -0.000000
RightUpLeg -131.704710 -33.466162 16.165276
RightLeg 126.432221 -0.000000 -0.000000
RightFoot -33.551762 0.120867 16.446012
RightToeBase 3.267118 -0.000000 -0.000000
320
root 0.063195 13.416545 -8.325530 40.342908 2.651281 -2.723679
Spine 45.448497 5.212830 4.742727
Head -75.287770 2.443639 7.079733
LeftShoulder 15.882574 -10.202791 19.709361
LeftArm 56.281743 11.117893 -19.312394
LeftForeArm 51.676143 -0.000000 62.757460
LeftHand -37.430230 -0.000000 40.085098
LeftHandThumb1 -26.253704 0.000000 33.147579
RightShoulder 7.747217 37.029376 -17.293166
RightArm 38.812137 -37.398754 35.319595
RightForeArm -47.728693 -0.000000 63.697019
RightHand -6.117377 -0.000000 -29.895573
RightHandThumb1 -24.326973 -0.000000 -32.862282
LeftUpLeg -133.520370 42.808244 -13.885245
LeftLeg 126.708824 -0.000000 -0.000000
LeftFoot -32.848484 -14.588259 -19.552744
LeftToeBase 8.410364 -0.000000 -0.000000
RightUpLeg -131.635756 -33.525707 15.959049
RightLeg 126.556569 -0.000000 -0.000000
RightFoot -33.569399 0.116456 16.530633
RightToeBase 3.330134 -0.000000 -0.000000
321
root 0.072930 13.376614 -8.326697 40.253854 2.668163 -2.699421
Spine 45.433200 5.258597 4.701406
Head -75.230207 2.407076 7.177533
LeftShoulder 15.863356 -10.014359 19.775755
LeftArm 56.273179 11.166018 -18.840503
LeftForeArm 51.920097 -0.000000 63.045983
LeftHand -37.258489 0.000000 39.797681
LeftHandThumb1 -26.253704 0.000000 33.147579
RightShoulder 7.719519 36.953973 -17.294151
RightArm 39.049192 -37.719193 34.679943
RightForeArm -47.777998 -0.000000 63.823604
RightHand -6.085424 0.000000 -29.765117
RightHandThumb1 -24.326973 -0.000000 -32.862282
LeftUpLeg -133.473722 42.816150 -13.756389
LeftLeg 126.843850 -0.000000 -0.000000
LeftFoot -32.847365 -14.676241 -19.647229
LeftToeBase 8.330206 -0.000000 -0.000000
RightUpLeg -131.606393 -33.610561 15.766938
RightLeg 126.668065 -0.000000 -0.000000
RightFoot -33.559566 0.125489 16.615350
RightToeBase 3.317360 -0.000000 -0.000000
322
root 0.085813 13.338510 -8.322129 40.117755 2.679430 -2.655976
Spine 45.499024 5.285068 4.634353
Head -75.290396 2.369274 7.289557
LeftShoulder 15.799046 -9.915363 19.827772
LeftArm 56.307644 11.273717 -18.441132
LeftForeArm 52.393579 -0.000000 63.257169
LeftHand -37.549539 -0.000000 39.544682
LeftHandThumb1 -26.253704 0.000000 33.147579
RightShoulder 7.708470 36.910511 -17.261862
RightArm 39.326241 -38.077052 33.919681
RightForeArm -47.943747 -0.000000 63.960312
RightHand -6.020018 -0.000000 -29.600990
RightHandThumb1 -24.326973 -0.000000 -32.862282
LeftUpLeg -133.343280 42.827161 -13.596917
LeftLeg 126.993839 -0.000000 -0.000000
LeftFoot -32.873591 -14.747169 -19.720044
LeftToeBase 8.324991 -0.000000 -0.000000
RightUpLeg -131.518099 -33.739728 15.537632
RightLeg 126.779688 -0.000000 -0.000000
RightFoot -33.566125 0.148242 16.675154
RightToeBase 3.374788 -0.000000 -0.000000
323
root 0.093783 13.298480 -8.313575 39.971169 2.642785 -2.661069
Spine 45.557844 5.384596 4.556118
Head -75.317848 2.359663 7.399512
LeftShoulder 15.789899 -9.872025 19.835500
LeftArm 56.207408 11.466767 -18.138621
LeftForeArm 52.806046 -0.000000 63.479195
LeftHand -37.475967 0.000000 39.396259
LeftHandThumb1 -26.253704 0.000000 33.147579
RightShoulder 7.747837 36.931594 -17.151607
RightArm 39.501833 -38.487237 33.233603
RightForeArm -48.147850 -0.000000 64.093632
RightHand -6.057495 0.000000 -29.499689
RightHandThumb1 -24.326973 -0.000000 -32.862282
LeftUpLeg -133.238743 42.943790 -13.457221
LeftLeg 127.156528 -0.000000 -0.000000
LeftFoot -32.910875 -14.825725 -19.737581
LeftToeBase 8.362794 -0.000000 -0.000000
RightUpLeg -131.392141 -33.793424 15.298476
RightLeg 126.905570 -0.000000 -0.000000
RightFoot -33.564670 0.183507 16.743841
RightToeBase 3.383668 -0.000000 -0.000000
324
root 0.104380 13.259730 -8.307041 39.841932 2.646155 -2.638509
Spine 45.590633 5.418146 4.479009
Head -75.324215 2.380200 7.508521
LeftShoulder 15.728079 -9.672255 19.869255
LeftArm 56.223809 11.532731 -17.836610
LeftForeArm 53.137272 -0.000000 63.650684
LeftHand -37.469642 0.000000 39.084542
LeftHandThumb1 -26.253704 0.000000 33.147579
RightShoulder 7.836809 37.072871 -17.039102
RightArm 39.477237 -38.958762 32.739866
RightForeArm -48.349997 -0.000000 64.219693
RightHand -5.841490 -0.000000 -29.152350
RightHandThumb1 -24.326973 -0.000000 -32.862282
LeftUpLeg -133.142119 42.981468 -13.310968
LeftLeg 127.314139 -0.000000 -0.000000
LeftFoot -32.922611 -14.865437 -19.767907
LeftToeBase 8.307000 -0.000000 -0.000000
RightUpLeg -131.311624 -33.901397 15.098453
RightLeg 127.028424 -0.000000 -0.000000
RightFoot -33.571774 0.229902 16.798655
RightToeBase 3.457120 -0.000000 -0.000000
325
root 0.115858 13.220998 -8.300551 39.724226 2.661094 -2.624046
Spine 45.617858 5.420917 4.439066
Head -75.376450 2.354058 7.520422
LeftShoulder 15.671739 -9.599088 19.827201
LeftArm 56.172695 11.704681 -17.695468
LeftForeArm 53.329274 -0.000000 63.838050
LeftHand -37.386569 0.000000 39.064753
LeftHandThumb1 -26.253704 0.000000 33.147579
RightShoulder 7.858975 37.078039 -16.973190
RightArm 39.628777 -39.330844 32.155075
RightForeArm -48.433800 -0.000000 64.329504
RightHand -5.773068 0.000000 -28.926325
RightHandThumb1 -24.326973 -0.000000 -32.862282
LeftUpLeg -133.059126 43.012366 -13.161291
LeftLeg 127.468625 -0.000000 -0.000000
LeftFoot -32.960282 -14.916138 -19.789649
LeftToeBase 8.340384 -0.000000 -0.000000
RightUpLeg -131.250190 -34.015235 14.929485
RightLeg 127.144657 -0.000000 -0.000000
RightFoot -33.560696 0.262008 16.862921
RightToeBase 3.482784 -0.000000 -0.000000
326
root 0.127724 13.182175 -8.295463 39.627080 2.663164 -2.630142
Spine 45.611533 5.448315 4.421143
Head -75.399168 2.298757 7.480657
LeftShoulder 15.640731 -9.658326 19.751830
LeftArm 56.083328 12.037887 -17.594156
LeftForeArm 53.484567 -0.000000 63.990329
LeftHand -37.536390 -0.000000 38.738848
LeftHandThumb1 -26.253704 0.000000 33.147579
RightShoulder 7.870130 36.926818 -16.903459
RightArm 39.871039 -39.569171 31.494495
RightForeArm -48.497685 -0.000000 64.446277
RightHand -5.737658 -0.000000 -28.570667
RightHandThumb1 -24.326973 -0.000000 -32.862282
LeftUpLeg -133.011037 43.069664 -13.023507
LeftLeg 127.619393 -0.000000 -0.000000
LeftFoot -32.988360 -15.008258 -19.804225
LeftToeBase 8.414196 -0.000000 -0.000000
RightUpLeg -131.208544 -34.094474 14.784293
RightLeg 127.254049 -0.000000 -0.000000
RightFoot -33.563889 0.279373 16.910329
RightToeBase 3.545621 -0.000000 -0.000000
327
root 0.139919 13.144248 -8.284029 39.473954 2.664929 -2.621788
Spine 45.684686 5.474287 4.392856
Head -75.444934 2.276918 7.493559
LeftShoulder 15.621675 -9.694148 19.705143
LeftArm 56.015516 12.332525 -17.554394
LeftForeArm 53.498325 0.000000 64.102734
LeftHand -37.379000 -0.000000 38.375788
LeftHandThumb1 -26.253704 0.000000 33.147579
RightShoulder 7.901048 36.915229 -16.849034
RightArm 39.881385 -39.847975 31.105365
RightForeArm -48.471471 -0.000000 64.558184
RightHand -5.641864 -0.000000 -28.052446
RightHandThumb1 -24.326973 -0.000000 -32.862282
LeftUpLeg -132.899918 43.136288 -12.882284
LeftLeg 127.785190 -0.000000 -0.000000
LeftFoot -33.014663 -15.067359 -19.807103
LeftToeBase 8.357913 -0.000000 -0.000000
RightUpLeg -131.112507 -34.211476 14.628577
RightLeg 127.372189 -0.000000 -0.000000
RightFoot -33.542729 0.267747 16.849665
RightToeBase 3.456337 -0.000000 -0.000000
328
root 0.151745 13.105993 -8.270791 39.318279 2.646879 -2.602291
Spine 45.757362 5.552618 4.343279
Head -75.499184 2.274890 7.569764
LeftShoulder 15.630866 -9.527254 19.714940
LeftArm 56.053425 12.413002 -17.454499
LeftForeArm 53.467206 -0.000000 64.188994
LeftHand -37.368923 -0.000000 38.087935
LeftHandThumb1 -26.253704 0.000000 33.147579
RightShoulder 7.899960 36.905725 -16.790951
RightArm 39.820718 -40.105947 30.849252
RightForeArm -48.444490 -0.000000 64.598430
RightHand -5.563147 0.000000 -27.726207
RightHandThumb1 -24.326973 -0.000000 -32.862282
LeftUpLeg -132.780308 43.222013 -12.764301
LeftLeg 127.951633 -0.000000 -0.000000
LeftFoot -33.054558 -15.125250 -19.777657
LeftToeBase 8.344812 -0.000000 -0.000000
RightUpLeg -131.012084 -34.332052 14.441902
RightLeg 127.495890 -0.000000 -0.000000
RightFoot -33.531795 0.302488 16.839484
RightToeBase 3.470247 -0.000000 -0.000000
